<svg width="50" height="50" viewBox="0 0 50 50" fill="none" xmlns="http://www.w3.org/2000/svg">
<path d="M50 14.525V26.25H39.8C39.5 26.225 38.85 25.85 38.7 25.575L36.1 20.65C35.075 18.7 33.3 17.6 31.4 17.7C29.5 17.8 27.875 19.075 27.05 21.15L23.6 29.8L23.1 28.5C21.875 25.325 18.375 22.925 14.925 22.925L0 23V14.525C0 5.425 5.425 0 14.525 0H35.475C44.575 0 50 5.425 50 14.525Z" fill="#F5F5F5"/>
<path d="M50 35.4717V29.9967H39.8C38.125 29.9967 36.15 28.7967 35.375 27.3217L32.775 22.3967C32.075 21.0717 31.075 21.1467 30.525 22.5217L24.775 37.0467C24.15 38.6717 23.1 38.6717 22.45 37.0467L19.6 29.8467C18.925 28.0967 16.825 26.6717 14.95 26.6717L0 26.7467V35.4717C0 44.4217 5.25 49.8217 14.075 49.9717C14.35 49.9967 14.65 49.9967 14.925 49.9967H34.925C35.3 49.9967 35.675 49.9967 36.025 49.9717C44.8 49.7717 50 44.3967 50 35.4717Z" fill="#F5F5F5"/>
</svg>
